<?xml version="1.0" encoding="utf-8"?>
<!-- Generator: Adobe Illustrator 13.0.0, SVG Export Plug-In . SVG Version: 6.00 Build 14948)  -->
<!DOCTYPE svg PUBLIC "-//W3C//DTD SVG 1.1//EN" "http://www.w3.org/Graphics/SVG/1.1/DTD/svg11.dtd">
<svg version="1.1" id="Layer_1" xmlns="http://www.w3.org/2000/svg" xmlns:xlink="http://www.w3.org/1999/xlink" x="0px" y="0px"
	 width="491.333px" height="106px" viewBox="0 0 491.333 106" enable-background="new 0 0 491.333 106" xml:space="preserve">
<g>
	<path fill="#4E4E4E" d="M122.718,48.525V13.621h7.79v27.964h14.88v6.941H122.718z"/>
	<path fill="#4E4E4E" d="M176.248,13.621v6.941h-17.377v7.191H174.5v6.641h-15.629v7.241h17.927v6.891h-25.717V13.621H176.248z"/>
	<path fill="#4E4E4E" d="M206.358,30.749h7.84v12.384c-3.462,3.862-8.256,5.792-14.381,5.792c-5.127,0-9.43-1.698-12.908-5.093
		c-3.479-3.396-5.218-7.682-5.218-12.858c0-5.176,1.773-9.496,5.318-12.958c3.545-3.462,7.823-5.193,12.833-5.193
		s9.363,1.648,13.058,4.943l-4.044,5.843c-1.565-1.365-3.005-2.305-4.319-2.821c-1.316-0.516-2.739-0.774-4.27-0.774
		c-2.963,0-5.46,1.007-7.49,3.021c-2.031,2.014-3.046,4.669-3.046,7.964c0,3.296,0.974,5.935,2.921,7.915
		c1.947,1.981,4.27,2.971,6.966,2.971c2.697,0,4.944-0.516,6.741-1.548V30.749z"/>
	<path fill="#4E4E4E" d="M246.007,48.525l-3.246-7.54H228.13l-3.246,7.54h-8.289l15.08-34.905h7.541l15.08,34.905H246.007z
		 M235.471,24.007l-4.395,10.137h8.739L235.471,24.007z"/>
	<path fill="#4E4E4E" d="M258.341,48.525V13.621h7.79v27.964h14.881v6.941H258.341z"/>
</g>
<g>
	<defs>
		<rect id="SVGID_1_" x="-337.333" y="-338.667" width="1190.55" height="841.89"/>
	</defs>
	<clipPath id="SVGID_2_">
		<use xlink:href="#SVGID_1_"  overflow="visible"/>
	</clipPath>
	<path clip-path="url(#SVGID_2_)" fill="#008181" d="M319.101,30.496h7.392V44.68c-3.846,2.897-9.14,4.444-14.134,4.444
		c-10.987,0-19.078-7.541-19.078-18.078c0-10.538,8.091-18.079,19.229-18.079c6.143,0,11.237,2.097,14.633,6.043l-5.194,4.794
		c-2.547-2.697-5.492-3.945-9.039-3.945c-6.792,0-11.437,4.544-11.437,11.187c0,6.542,4.645,11.187,11.336,11.187
		c2.198,0,4.245-0.4,6.293-1.499V30.496z"/>
	<path clip-path="url(#SVGID_2_)" fill="#008181" d="M333.679,33.143V13.566h8.091v19.278c0,6.642,2.896,9.389,7.791,9.389
		c4.943,0,7.79-2.747,7.79-9.389V13.566h7.991v19.577c0,10.288-5.893,15.981-15.832,15.981
		C339.572,49.124,333.679,43.431,333.679,33.143"/>
	<rect x="373.328" y="13.565" clip-path="url(#SVGID_2_)" fill="#008181" width="8.09" height="34.959"/>
	<path clip-path="url(#SVGID_2_)" fill="#008181" d="M389.706,13.566h15.881c11.438,0,19.278,6.892,19.278,17.48
		c0,10.587-7.841,17.479-19.278,17.479h-15.881V13.566z M405.187,41.883c6.942,0,11.487-4.146,11.487-10.837
		c0-6.693-4.545-10.838-11.487-10.838h-7.392v21.675H405.187z"/>
	<polygon clip-path="url(#SVGID_2_)" fill="#008181" points="458.02,42.033 458.02,48.526 430.952,48.526 430.952,13.566 
		457.371,13.566 457.371,20.059 438.992,20.059 438.992,27.65 455.223,27.65 455.223,33.943 438.992,33.943 438.992,42.033 	"/>
	<path clip-path="url(#SVGID_2_)" fill="#008181" d="M461.71,45.08l2.747-6.093c2.946,2.147,7.341,3.646,11.536,3.646
		c4.795,0,6.742-1.598,6.742-3.746c0-6.542-20.326-2.048-20.326-15.033c0-5.942,4.794-10.887,14.732-10.887
		c4.396,0,8.89,1.049,12.137,3.096l-2.497,6.143c-3.247-1.848-6.593-2.747-9.689-2.747c-4.794,0-6.642,1.798-6.642,3.996
		c0,6.442,20.325,1.998,20.325,14.833c0,5.843-4.844,10.837-14.832,10.837C470.399,49.125,464.807,47.477,461.71,45.08"/>
	<path clip-path="url(#SVGID_2_)" fill="#4E4E4E" d="M136.623,74.374h-8.865l-1.683,3.968h-3.09l7.761-17.581h3.039l7.686,17.581
		h-3.165L136.623,74.374z M135.493,71.737l-3.315-7.811l-3.315,7.811H135.493z"/>
	<path clip-path="url(#SVGID_2_)" fill="#4E4E4E" d="M172.313,63.423c-1.733,0-2.863,0.653-2.863,1.833
		c0,3.843,9.493,1.784,9.468,8.113c0,3.139-2.762,5.074-6.63,5.074c-2.763,0-5.375-1.131-7.183-2.789l1.281-2.561
		c1.808,1.657,4.069,2.561,5.952,2.561c2.059,0,3.29-0.778,3.29-2.134c0-3.918-9.494-1.733-9.494-7.987
		c0-3.014,2.587-4.898,6.405-4.898c2.286,0,4.521,0.728,6.153,1.809l-1.23,2.612C175.554,63.9,173.645,63.423,172.313,63.423"/>
	<path clip-path="url(#SVGID_2_)" fill="#4E4E4E" d="M211.043,63.423c-1.733,0-2.863,0.653-2.863,1.833
		c0,3.843,9.493,1.784,9.468,8.113c0,3.139-2.762,5.074-6.63,5.074c-2.763,0-5.375-1.131-7.183-2.789l1.281-2.561
		c1.808,1.657,4.069,2.561,5.952,2.561c2.059,0,3.29-0.778,3.29-2.134c0-3.918-9.494-1.733-9.494-7.987
		c0-3.014,2.587-4.898,6.405-4.898c2.286,0,4.521,0.728,6.153,1.809l-1.23,2.612C214.283,63.9,212.374,63.423,211.043,63.423"/>
	<path clip-path="url(#SVGID_2_)" fill="#4E4E4E" d="M261.401,69.552c0,5.023-4.068,8.916-9.318,8.916
		c-5.249,0-9.318-3.893-9.318-8.916c0-5.048,4.069-8.866,9.318-8.866C257.333,60.686,261.401,64.529,261.401,69.552 M245.778,69.552
		c0,3.491,2.889,6.254,6.33,6.254s6.253-2.763,6.253-6.254c0-3.491-2.812-6.204-6.253-6.204
		C248.641,63.348,245.778,66.061,245.778,69.552"/>
	<path clip-path="url(#SVGID_2_)" fill="#4E4E4E" d="M294.805,63.323c-3.516,0-6.278,2.713-6.278,6.179
		c0,3.466,2.763,6.203,6.278,6.203c1.759,0,3.566-0.803,4.898-2.084l1.758,1.959c-1.783,1.758-4.32,2.888-6.807,2.888
		c-5.148,0-9.143-3.893-9.143-8.941c0-4.998,4.044-8.841,9.243-8.841c2.487,0,4.973,1.03,6.681,2.713l-1.732,2.159
		C298.422,64.177,296.588,63.323,294.805,63.323"/>
	<rect x="327.582" y="60.762" clip-path="url(#SVGID_2_)" fill="#4E4E4E" width="2.964" height="17.581"/>
	<path clip-path="url(#SVGID_2_)" fill="#4E4E4E" d="M369.626,74.374h-8.866l-1.683,3.968h-3.089l7.761-17.581h3.039l7.687,17.581
		h-3.166L369.626,74.374z M368.497,71.737l-3.315-7.811l-3.315,7.811H368.497z"/>
	<polygon clip-path="url(#SVGID_2_)" fill="#4E4E4E" points="410.19,60.761 410.19,63.423 404.614,63.423 404.614,78.342 
		401.65,78.342 401.65,63.423 396.099,63.423 396.099,60.761 	"/>
	<polygon clip-path="url(#SVGID_2_)" fill="#4E4E4E" points="448.391,60.761 448.391,63.423 438.797,63.423 438.797,68.195 
		447.387,68.195 447.387,70.833 438.797,70.833 438.797,75.68 448.693,75.68 448.693,78.342 435.833,78.342 435.833,60.761 	"/>
	<path clip-path="url(#SVGID_2_)" fill="#4E4E4E" d="M480.967,63.423c-1.733,0-2.863,0.653-2.863,1.833
		c0,3.843,9.494,1.784,9.469,8.113c0,3.139-2.763,5.074-6.631,5.074c-2.763,0-5.375-1.131-7.183-2.789l1.28-2.561
		c1.809,1.657,4.069,2.561,5.953,2.561c2.06,0,3.29-0.778,3.29-2.134c0-3.918-9.494-1.733-9.494-7.987
		c0-3.014,2.587-4.898,6.404-4.898c2.286,0,4.521,0.728,6.154,1.809l-1.231,2.612C484.208,63.9,482.298,63.423,480.967,63.423"/>
	<path clip-path="url(#SVGID_2_)" fill="#008181" d="M66.953,8.244H8.032c-1.572,0-2.857-1.5-2.857-3.333V4.67
		c0-1.833,1.285-3.333,2.857-3.333h58.921c1.571,0,2.857,1.5,2.857,3.333v0.241C69.81,6.744,68.524,8.244,66.953,8.244"/>
	<path clip-path="url(#SVGID_2_)" fill="#008181" d="M34.796,63.958c0-1.571-1.502-2.857-3.338-2.857h-0.242
		c-1.835,0-3.337,1.285-3.338,2.855v0.002v10.123v3.557l-15.336-7.066V35.041V24.918v-0.204h-0.013
		c-0.132-1.477-1.672-2.653-3.542-2.653H8.729c-1.87,0-3.41,1.176-3.542,2.653H5.175v0.204v10.123v40.041l29.62,14.167V74.081h0.001
		V63.958z"/>
	<path clip-path="url(#SVGID_2_)" fill="#008181" d="M72.761,83.474l-0.115-0.222c-0.876-1.685-2.733-2.47-4.127-1.746l-2.889,1.502
		L37.795,97.185L9.933,83.315l-3.2-1.607c-1.405-0.705-3.257,0.118-4.117,1.83l-0.113,0.226c-0.859,1.711-0.414,3.689,0.991,4.395
		l1.682,0.845l-0.001,0.002l1.007,0.503l6.358,3.193l0.007-0.014l25.249,12.616l25.032-12.797l0.009,0.016l2.518-1.308l4.322-2.21
		l-0.018-0.027l2.16-1.123C73.212,87.13,73.637,85.159,72.761,83.474"/>
	<path clip-path="url(#SVGID_2_)" fill="#008181" d="M40.658,24.714v64.535l29.62-14.467V50.425h-6.365H54.19h-0.4
		c-1.572,0-2.858,1.423-2.858,3.164v0.228c0,1.741,1.286,3.164,2.858,3.164h0.4v0.001h8.269v13.59L47.424,78.24V32.382H62.76v0.06
		h-0.099v10.123c0,1.572,1.654,2.857,3.675,2.857h0.266c1.873,0,3.428-1.103,3.647-2.515h0.029v-0.342V32.442v-7.728H40.658z"/>
	<path clip-path="url(#SVGID_2_)" fill="#008181" d="M66.953,19.058H8.032c-1.572,0-2.857-1.5-2.857-3.333v-0.241
		c0-1.833,1.285-3.333,2.857-3.333h58.921c1.571,0,2.857,1.5,2.857,3.333v0.241C69.81,17.558,68.524,19.058,66.953,19.058"/>
	<path clip-path="url(#SVGID_2_)" fill="#008181" d="M35.232,25.07h-4.817H24.59h-7.058c-1.571,0-2.857,1.5-2.857,3.333v0.241
		c0,1.833,1.286,3.333,2.857,3.333h7.058h7.617h3.025c1.571,0,2.857-1.5,2.857-3.333v-0.241C38.089,26.57,36.804,25.07,35.232,25.07
		"/>
	<path clip-path="url(#SVGID_2_)" fill="#008181" d="M35.232,51.954h-4.817H24.59h-7.058c-1.571,0-2.857,1.5-2.857,3.333v0.241
		c0,1.833,1.286,3.333,2.857,3.333h7.058h7.617h3.025c1.571,0,2.857-1.5,2.857-3.333v-0.241
		C38.089,53.454,36.804,51.954,35.232,51.954"/>
	<path clip-path="url(#SVGID_2_)" fill="#008181" d="M35.232,37.616h-4.817H24.59h-7.058c-1.571,0-2.857,1.5-2.857,3.333v0.241
		c0,1.833,1.286,3.333,2.857,3.333h7.058h7.617h3.025c1.571,0,2.857-1.5,2.857-3.333v-0.241
		C38.089,39.116,36.804,37.616,35.232,37.616"/>
	
		<line clip-path="url(#SVGID_2_)" fill="none" stroke="#58595B" stroke-width="0.25" stroke-miterlimit="10" x1="98.327" y1="-3.092" x2="98.327" y2="105.305"/>
</g>
</svg>
