<?xml version="1.0" encoding="utf-8"?>
<!-- Generator: Adobe Illustrator 13.0.0, SVG Export Plug-In . SVG Version: 6.00 Build 14948)  -->
<!DOCTYPE svg PUBLIC "-//W3C//DTD SVG 1.1//EN" "http://www.w3.org/Graphics/SVG/1.1/DTD/svg11.dtd">
<svg version="1.1" id="Layer_1" xmlns="http://www.w3.org/2000/svg" xmlns:xlink="http://www.w3.org/1999/xlink" x="0px" y="0px"
	 width="140px" height="42px" viewBox="0 0 140 42" enable-background="new 0 0 140 42" xml:space="preserve">
<g>
	<defs>
		<rect id="SVGID_1_" x="-46.593" y="-94.733" width="233.093" height="231.623"/>
	</defs>
	<clipPath id="SVGID_2_">
		<use xlink:href="#SVGID_1_"  overflow="visible"/>
	</clipPath>
	<path clip-path="url(#SVGID_2_)" fill="#231F20" d="M50.719,18.964c-0.854-0.884-1.91-1.605-3.174-2.155
		c-1.265-0.552-2.714-0.827-4.352-0.827c-1.934,0-3.664,0.355-5.189,1.064c-1.528,0.709-2.824,1.659-3.88,2.844
		c-1.059,1.189-1.87,2.562-2.427,4.125c-0.565,1.564-0.899,3.196-0.848,4.903c0.165,5,1.688,7.168,3.387,9.08
		c5.021,5.655,17.755,2.904,17.755,2.904s-8.406,0.404-12.278-5.666c-0.637-1.003-1.283-2.18-1.474-3.617
		c-0.39-2.912,5.978-1.354,10.443-1.509c4.273-0.148,4.503-2.045,4.503-2.045c0.013-0.12,0.032-0.289,0.048-0.516
		c0.014-0.225,0.032-0.464,0.048-0.714c0.015-0.251,0.029-0.503,0.037-0.755c0.008-0.249,0.011-0.449,0.011-0.599
		c0-1.172-0.222-2.327-0.667-3.473S51.57,19.853,50.719,18.964 M46.415,25.933l-3.989,0.071c0,0-2.155-0.058-3.397,0.851
		c-0.659,0.483-1.246,0.926-1.246,0.926c0.051-1.152,0.317-4.014,0.542-4.944c0.224-0.926,0.533-1.712,0.928-2.355
		c0.399-0.642,0.886-1.136,1.467-1.479c0.578-0.343,1.245-0.515,2.005-0.515c0.76,0,1.39,0.195,1.883,0.576
		c0.496,0.386,0.888,0.915,1.178,1.582c0.292,0.668,0.486,1.457,0.595,2.368C46.487,23.924,46.415,24.881,46.415,25.933"/>
	<path clip-path="url(#SVGID_2_)" fill="#231F20" d="M112.746,18.964c-0.85-0.884-1.908-1.605-3.173-2.155
		c-1.265-0.552-2.715-0.827-4.353-0.827c-1.933,0-3.663,0.355-5.191,1.064c-1.529,0.709-2.821,1.659-3.88,2.848
		c-1.057,1.186-1.867,2.558-2.429,4.122c-0.562,1.564-0.896,3.199-0.842,4.903c0.161,5,1.684,7.168,3.382,9.083
		c5.021,5.652,17.758,2.901,17.758,2.901s-8.408,0.407-12.281-5.666c-0.637-1.003-1.281-2.18-1.473-3.617
		c-0.388-2.912,5.981-1.354,10.447-1.509c4.273-0.148,4.501-2.045,4.501-2.045c0.014-0.12,0.031-0.289,0.048-0.516
		c0.02-0.225,0.033-0.464,0.05-0.714c0.018-0.251,0.028-0.503,0.039-0.753c0.008-0.248,0.01-0.451,0.01-0.601
		c0-1.169-0.221-2.327-0.669-3.473C114.244,20.865,113.597,19.853,112.746,18.964 M108.442,25.933l-3.987,0.071
		c0,0-2.157-0.058-3.402,0.851c-0.658,0.483-1.238,0.926-1.238,0.926c0.048-1.152,0.316-4.014,0.538-4.941
		c0.221-0.929,0.532-1.715,0.927-2.358c0.4-0.642,0.886-1.136,1.465-1.479c0.575-0.343,1.245-0.512,2.008-0.512
		c0.757,0,1.389,0.192,1.886,0.573c0.493,0.386,0.884,0.915,1.176,1.582c0.286,0.668,0.487,1.457,0.594,2.368
		C108.515,23.927,108.442,24.881,108.442,25.933"/>
	<path clip-path="url(#SVGID_2_)" fill="#231F20" d="M127.711,18.614c1.382,0.161,2.482,0.621,3.301,1.391
		c0.887,0.837,1.535,1.981,1.932,3.433c0.174,0.041,0.374,0.077,0.595,0.106c0.227,0.034,0.427,0.057,0.595,0.072
		c1.883,0.154,3.553-0.19,3.907-0.354c0.348-0.165,0.638-0.389,0.854-0.67c0.214-0.286,0.335-0.641,0.346-1.064
		c0.022-0.581-0.165-1.164-0.562-1.745c-0.396-0.582-0.972-1.108-1.72-1.59c-0.759-0.482-1.675-0.892-2.742-1.227
		c-1.069-0.339-11.724-3.25-15.666,2.886c-0.606,0.946-1.158,2.172-1.198,3.353c-0.04,1.086,0.184,2.019,0.669,2.811
		c0.484,0.792,1.128,1.491,1.938,2.102c0.811,0.611,1.731,1.159,2.755,1.646c1.02,0.491,2.054,0.953,3.097,1.399
		c0.279,0.13,3.751,1.671,4.357,2.097c0.61,0.426,1.08,0.889,1.41,1.382c0.331,0.493,0.485,1.047,0.461,1.661
		c-0.034,0.952-0.453,1.669-1.258,2.16c-0.533,0.321-1.197,0.515-1.977,0.575c-1.525-0.121-2.731-0.597-3.607-1.424
		c-0.89-0.837-1.536-1.979-1.937-3.433c-0.17-0.041-0.366-0.076-0.59-0.107c-0.229-0.031-3.162-0.346-4.504,0.282
		c-0.351,0.166-0.637,0.388-0.853,0.675c-0.22,0.281-0.337,0.636-0.352,1.06c-0.019,0.585,0.168,1.166,0.565,1.746
		c0.396,0.578,0.974,1.11,1.727,1.591c0.752,0.483,1.653,0.94,2.735,1.228c7.753,2.055,12.093-0.237,13.177-0.836
		c1.089-0.601,1.97-1.356,2.629-2.265c0.665-0.908,1.02-1.96,1.059-3.139c0.039-1.084,0.313-4.328-4.013-6.295
		c-1.024-0.466-2.009-0.966-3.02-1.424c-1.057-0.446-2.021-0.872-2.889-1.286c-0.873-0.406-1.61-0.824-2.219-1.251
		c-0.611-0.43-1.081-0.89-1.411-1.383c-0.326-0.493-0.507-1.053-0.461-1.663C124.968,19.469,126.431,18.78,127.711,18.614"/>
	<path clip-path="url(#SVGID_2_)" fill="#231F20" d="M29.458,36.615l-8.277-12.719c0.711-0.24,1.492-0.593,2.352-1.056
		c0.861-0.466,1.658-1.068,2.394-1.816c0.733-0.745,1.349-1.652,1.845-2.718c0.496-1.061,0.745-2.324,0.745-3.784
		c0-0.704-0.08-1.41-0.238-2.122c-0.154-0.712-0.424-1.396-0.805-2.047c-0.379-0.654-0.892-1.257-1.537-1.817
		c-0.643-0.557-1.458-1.044-2.44-1.466c-0.984-0.421-2.152-0.751-3.507-0.992c-1.354-0.241-2.927-0.36-4.709-0.36H7.914H6.138H2.41
		c0,0,2.264,0.657,2.264,3.08v29.078c-0.146,2.478-4.008,3.265-4.008,3.265l8.915,0.011c0,0,2.117-0.062,2.133-2.081V8.497h2.896
		c2.019,0,3.579,0.574,4.685,1.715c1.109,1.142,1.662,2.964,1.662,5.472c0,0.925-0.12,1.835-0.36,2.729
		c-0.17,0.636-0.408,1.218-0.709,1.756c-2.119,3.65-6.363,3.046-6.363,3.046l2.467,3.854l6.883,10.479
		c3.299,5.031,11.019,3.786,11.019,3.786C31.316,39.257,29.535,36.735,29.458,36.615"/>
	<path clip-path="url(#SVGID_2_)" fill="#231F20" d="M56.53,17.755v23.624l4.906-0.024c0,0,2.12-0.062,2.136-2.082V18.761
		c0,0,0.026-0.817,0.426-1.518c0.426-0.747,1.118-1.255,1.118-1.255l-7.117-0.006C57.999,15.982,56.622,16.14,56.53,17.755"/>
	<path clip-path="url(#SVGID_2_)" fill="#231F20" d="M90.127,37.62V24.789c0-1.551-0.208-2.889-0.624-4.005
		c-0.417-1.12-0.992-2.031-1.726-2.744c-0.739-0.708-1.605-1.226-2.607-1.558c-1.002-0.335-2.078-0.5-3.229-0.5
		c-0.676,0-1.354,0.047-2.035,0.153c-0.678,0.102-1.365,0.307-2.057,0.612c-0.692,0.307-1.39,0.747-2.087,1.321
		c-0.339,0.273-0.676,0.601-1.011,0.965v-0.085c0,0,0.026-0.812,0.426-1.513c0.427-0.742,1.113-1.247,1.113-1.247l-7.116-0.005
		c0,0-1.373,0.156-1.466,1.765V41.44l4.906-0.026c0,0,2.12-0.057,2.137-2.068V21.189c0.028-0.025,0.063-0.053,0.094-0.075
		c0.389-0.28,0.791-0.489,1.207-0.627c0.419-0.134,0.845-0.221,1.292-0.254c0.446-0.038,0.866-0.054,1.273-0.054
		c0.96,0,1.723,0.153,2.299,0.45c0.574,0.299,1.019,0.739,1.331,1.318c0.31,0.582,0.51,1.304,0.607,2.166
		c0.099,0.862,0.149,1.868,0.149,3.009v10.968c0.559,2.22,2.212,3.188,4.389,3.373h7.672C94.355,41.446,90.031,40.382,90.127,37.62"
		/>
	<path clip-path="url(#SVGID_2_)" fill="#00A551" d="M66.257,0.586l-6.644,5.086c0,0-1.393,1.022-1.917,2.44
		c-0.531,1.419-0.435,2.979-0.435,2.979l0.01,3.008l6.027-4.613c0,0,1.661-1.424,2.328-2.548c0.709-1.194,0.614-2.745,0.614-2.745
		L66.257,0.586z"/>
</g>
</svg>
